<svg xmlns="http://www.w3.org/2000/svg" viewBox="0 0 500 500">
    <defs>
        <style>.cls-1{fill:#58595b;}.cls-2{fill:#fff;}</style>
    </defs>
    <g id="LOGO_LAYER" data-name="LOGO LAYER">
        <path class="cls-2" d="M250,55c107.7,0,195,87.3,195,195S357.7,445,250,445,55,357.7,55,250,142.3,55,250,55m0-40a235.05,235.05,0,0,0-91.48,451.52,235.05,235.05,0,0,0,183-433A233.59,233.59,0,0,0,250,15Z" />
        <path class="cls-2" d="M373.52,227.48H307.88l46.42-46.42a25,25,0,0,0-35.36-35.36l-71.42,71.42L176.11,145.7a25,25,0,0,0-35.36,35.36l46.42,46.42H121.52a25,25,0,1,0,0,50h65.65l-46.42,46.41a25,25,0,0,0,35.36,35.36l71.41-71.42,71.42,71.42a25,25,0,0,0,35.36-35.36l-46.42-46.41h65.64a25,25,0,0,0,0-50Z" />
        <circle class="cls-2" cx="247.52" cy="133.43" r="25" />
        <circle class="cls-2" cx="247.52" cy="366.57" r="25" />
    </g>
</svg>