<svg xmlns="http://www.w3.org/2000/svg" viewBox="0 0 500 500">
    <defs>
        <style>.cls-1{fill:#58595b;}.cls-2{fill:#fff;}</style>
    </defs>
    <g id="LOGO_LAYER" data-name="LOGO LAYER">
        <circle class="cls-2" cx="250" cy="250" r="130" />
        <path class="cls-2" d="M250,140a110,110,0,1,1-77.78,32.22A109.25,109.25,0,0,1,250,140m0-40A150,150,0,1,0,400,250,150,150,0,0,0,250,100Z" />
        <path class="cls-2" d="M250,55c107.7,0,195,87.3,195,195S357.7,445,250,445,55,357.7,55,250,142.3,55,250,55m0-40a235.05,235.05,0,0,0-91.48,451.52,235.05,235.05,0,0,0,183-433A233.59,233.59,0,0,0,250,15Z" />
    </g>
</svg>