<svg xmlns="http://www.w3.org/2000/svg" viewBox="0 0 500 500">
    <defs>
        <style>.cls-1{fill:#58595b;}.cls-2{fill:none;}.cls-3{fill:#fff;}</style>
    </defs>
    <g id="LOGO_LAYER" data-name="LOGO LAYER">
        <path class="cls-2" d="M225,153.16a100,100,0,0,0,0,193.68Z" />
        <path class="cls-2" d="M275,153.16V346.84a100,100,0,0,0,0-193.68Z" />
        <path class="cls-3" d="M250,100A150,150,0,1,0,400,250,150,150,0,0,0,250,100ZM150,250a100.19,100.19,0,0,1,75-96.84V346.84A100.19,100.19,0,0,1,150,250Zm125,96.84V153.16a100,100,0,0,1,0,193.68Z" />
        <path class="cls-3" d="M250,55c107.7,0,195,87.3,195,195S357.7,445,250,445,55,357.7,55,250,142.3,55,250,55m0-40a235.05,235.05,0,0,0-91.48,451.52,235.05,235.05,0,0,0,183-433A233.59,233.59,0,0,0,250,15Z" />
    </g>
</svg>