<?xml version="1.0" encoding="utf-8"?>
<!-- Generator: Adobe Illustrator 23.0.3, SVG Export Plug-In . SVG Version: 6.00 Build 0)  -->
<svg version="1.1" id="Layer_1" xmlns="http://www.w3.org/2000/svg" xmlns:xlink="http://www.w3.org/1999/xlink" x="0px" y="0px"
	 viewBox="0 0 32 16" style="enable-background:new 0 0 32 16;" xml:space="preserve">
<style type="text/css">
	.st0{fill:#B9B9B9;}
	.st1{fill:#FF5A5A;filter:url(#Adobe_OpacityMaskFilter);}
	.st2{mask:url(#mask0_1_);}
	.st3{fill:#C4C4C4;}
	.st4{fill:#AFAFAF;}
	.st5{fill:#A4A4A4;}
	.st6{fill:#333333;}
</style>
<path class="st0" d="M8,0h16c4.4,0,8,3.6,8,8l0,0c0,4.4-3.6,8-8,8H8c-4.4,0-8-3.6-8-8l0,0C0,3.6,3.6,0,8,0z"/>
<defs>
	<filter id="Adobe_OpacityMaskFilter" filterUnits="userSpaceOnUse" x="-1.3" y="-9" width="35.3" height="30">
		<feColorMatrix  type="matrix" values="1 0 0 0 0  0 1 0 0 0  0 0 1 0 0  0 0 0 1 0"/>
	</filter>
</defs>
<mask maskUnits="userSpaceOnUse" x="-1.3" y="-9" width="35.3" height="30" id="mask0_1_">
	<path class="st1" d="M8,0h16c4.4,0,8,3.6,8,8l0,0c0,4.4-3.6,8-8,8H8c-4.4,0-8-3.6-8-8l0,0C0,3.6,3.6,0,8,0z"/>
</mask>
<g class="st2">
	<path class="st3" d="M16-9l17.3,30H-1.3L16-9z"/>
	<path class="st4" d="M27.5,3L34,14.2H21L27.5,3z"/>
	<path class="st5" d="M7.5-2l3.9,6.8H3.6L7.5-2z"/>
	<path class="st5" d="M9.5,13l3.9,6.8H5.6L9.5,13z"/>
</g>
<g>
	<polygon class="st6" points="11,3.9 21.3,3.9 21.3,5.2 12.5,5.2 12.5,7.5 20.8,7.5 20.8,8.8 12.5,8.8 12.5,12.3 11,12.3 	"/>
</g>
</svg>
